<?xml version="1.0" encoding="UTF-8"?>
<!DOCTYPE svg PUBLIC "-//W3C//DTD SVG 1.1//EN"
    "http://www.w3.org/Graphics/SVG/1.1/DTD/svg11.dtd"><svg xmlns="http://www.w3.org/2000/svg" height="320.0000" stroke-opacity="1" viewBox="0 0 800 320" font-size="1" width="800.0000" xmlns:xlink="http://www.w3.org/1999/xlink" stroke="rgb(0,0,0)" version="1.1"><defs></defs><g stroke-linejoin="miter" stroke-opacity="1.0" fill-opacity="1.0" stroke="rgb(0,0,0)" stroke-width="0.0" fill="rgb(255,255,255)" stroke-linecap="butt" stroke-miterlimit="10.0"><path d="M 800.0000,320.0000 l -0.0000,-320.0000 h -800.0000 l -0.0000,320.0000 Z"/></g><g stroke-linejoin="miter" stroke-opacity="1.0" fill-opacity="1.0" stroke="rgb(0,0,0)" stroke-width="0.0" fill="rgb(163,187,226)" stroke-linecap="butt" stroke-miterlimit="10.0"><path d="M 757.9085,160.0000 c 0.0000,-73.6380 -59.6954,-133.3333 -133.3333 -133.3333c -73.6380,-0.0000 -133.3333,59.6954 -133.3333 133.3333c -0.0000,73.6380 59.6954,133.3333 133.3333 133.3333c 73.6380,0.0000 133.3333,-59.6954 133.3333 -133.3333Z"/></g><g stroke-linejoin="miter" stroke-opacity="1.0" fill-opacity="1.0" stroke="rgb(0,0,0)" stroke-width="2.0238577025077626" fill="rgb(0,0,0)" stroke-linecap="butt" stroke-miterlimit="10.0"><path d="M 584.5751,226.6667 c 0.0000,-14.7276 -11.9391,-26.6667 -26.6667 -26.6667c -14.7276,-0.0000 -26.6667,11.9391 -26.6667 26.6667c -0.0000,14.7276 11.9391,26.6667 26.6667 26.6667c 14.7276,0.0000 26.6667,-11.9391 26.6667 -26.6667Z"/></g><g stroke-linejoin="miter" stroke-opacity="1.0" fill-opacity="1.0" font-size="26.666666666666657px" stroke="rgb(0,0,0)" stroke-width="2.0238577025077626" fill="rgb(255,255,255)" stroke-linecap="butt" stroke-miterlimit="10.0"><text dominant-baseline="middle" transform="matrix(1.0000,0.0000,0.0000,1.0000,557.9085,226.6667)" stroke="none" text-anchor="middle">2</text></g><g stroke-linejoin="miter" stroke-opacity="1.0" fill-opacity="1.0" stroke="rgb(0,0,0)" stroke-width="2.0238577025077626" fill="rgb(0,0,0)" stroke-linecap="butt" stroke-miterlimit="10.0"><path d="M 584.5751,93.3333 c 0.0000,-14.7276 -11.9391,-26.6667 -26.6667 -26.6667c -14.7276,-0.0000 -26.6667,11.9391 -26.6667 26.6667c -0.0000,14.7276 11.9391,26.6667 26.6667 26.6667c 14.7276,0.0000 26.6667,-11.9391 26.6667 -26.6667Z"/></g><g stroke-linejoin="miter" stroke-opacity="1.0" fill-opacity="1.0" font-size="26.666666666666657px" stroke="rgb(0,0,0)" stroke-width="2.0238577025077626" fill="rgb(255,255,255)" stroke-linecap="butt" stroke-miterlimit="10.0"><text dominant-baseline="middle" transform="matrix(1.0000,0.0000,0.0000,1.0000,557.9085,93.3333)" stroke="none" text-anchor="middle">1</text></g><g stroke-linejoin="miter" stroke-opacity="1.0" fill-opacity="1.0" stroke="rgb(0,0,0)" stroke-width="2.0238577025077626" fill="rgb(0,0,0)" stroke-linecap="butt" stroke-miterlimit="10.0"><path d="M 717.9085,93.3333 c 0.0000,-14.7276 -11.9391,-26.6667 -26.6667 -26.6667c -14.7276,-0.0000 -26.6667,11.9391 -26.6667 26.6667c -0.0000,14.7276 11.9391,26.6667 26.6667 26.6667c 14.7276,0.0000 26.6667,-11.9391 26.6667 -26.6667Z"/></g><g stroke-linejoin="miter" stroke-opacity="1.0" fill-opacity="1.0" font-size="26.666666666666657px" stroke="rgb(0,0,0)" stroke-width="2.0238577025077626" fill="rgb(255,255,255)" stroke-linecap="butt" stroke-miterlimit="10.0"><text dominant-baseline="middle" transform="matrix(1.0000,0.0000,0.0000,1.0000,691.2418,93.3333)" stroke="none" text-anchor="middle">3</text></g><g stroke-linejoin="miter" stroke-opacity="1.0" fill-opacity="1.0" stroke="rgb(0,0,0)" stroke-width="2.0238577025077626" fill="rgb(0,0,0)" stroke-linecap="butt" stroke-miterlimit="10.0"><path d="M 717.9085,226.6667 c 0.0000,-14.7276 -11.9391,-26.6667 -26.6667 -26.6667c -14.7276,-0.0000 -26.6667,11.9391 -26.6667 26.6667c -0.0000,14.7276 11.9391,26.6667 26.6667 26.6667c 14.7276,0.0000 26.6667,-11.9391 26.6667 -26.6667Z"/></g><g stroke-linejoin="miter" stroke-opacity="1.0" fill-opacity="1.0" font-size="26.666666666666657px" stroke="rgb(0,0,0)" stroke-width="2.0238577025077626" fill="rgb(255,255,255)" stroke-linecap="butt" stroke-miterlimit="10.0"><text dominant-baseline="middle" transform="matrix(1.0000,0.0000,0.0000,1.0000,691.2418,226.6667)" stroke="none" text-anchor="middle">4</text></g><g stroke-linejoin="miter" stroke-opacity="1.0" fill-opacity="0.0" stroke="rgb(0,0,0)" stroke-width="2.0238577025077626" fill="rgb(0,0,0)" stroke-linecap="butt" stroke-miterlimit="10.0"><path d="M 584.5751,226.6667 l 62.2912,0.0000 "/></g><g stroke-linejoin="miter" stroke-opacity="1.0" fill-opacity="1.0" stroke="rgb(0,0,0)" stroke-width="0.0" fill="rgb(0,0,0)" stroke-linecap="butt" stroke-miterlimit="10.0"></g><g stroke-linejoin="miter" stroke-opacity="1.0" fill-opacity="1.0" stroke="rgb(0,0,0)" stroke-width="0.0" fill="rgb(0,0,0)" stroke-linecap="butt" stroke-miterlimit="10.0"></g><g stroke-linejoin="miter" stroke-opacity="1.0" fill-opacity="1.0" stroke="rgb(0,0,0)" stroke-width="0.0" fill="rgb(0,0,0)" stroke-linecap="butt" stroke-miterlimit="10.0"><path d="M 664.5751,226.6667 l -20.7154,-6.7308 l 3.5386,6.7308 l -3.5386,6.7308 Z"/></g><g stroke-linejoin="miter" stroke-opacity="1.0" fill-opacity="1.0" stroke="rgb(0,0,0)" stroke-width="0.0" fill="rgb(0,0,0)" stroke-linecap="butt" stroke-miterlimit="10.0"><path d="M 647.3984,226.6667 l -0.5320,-0.0000 l 0.0000,-1.0119 l 0.5320,1.0119 l -0.5320,-0.0000 l -0.0000,1.0119 Z"/></g><g stroke-linejoin="miter" stroke-opacity="1.0" fill-opacity="0.0" stroke="rgb(0,0,0)" stroke-width="2.0238577025077626" fill="rgb(0,0,0)" stroke-linecap="butt" stroke-miterlimit="10.0"><path d="M 576.7646,207.8105 l 83.0990,-83.0990 "/></g><g stroke-linejoin="miter" stroke-opacity="1.0" fill-opacity="1.0" stroke="rgb(0,0,0)" stroke-width="0.0" fill="rgb(0,0,0)" stroke-linecap="butt" stroke-miterlimit="10.0"></g><g stroke-linejoin="miter" stroke-opacity="1.0" fill-opacity="1.0" stroke="rgb(0,0,0)" stroke-width="0.0" fill="rgb(0,0,0)" stroke-linecap="butt" stroke-miterlimit="10.0"></g><g stroke-linejoin="miter" stroke-opacity="1.0" fill-opacity="1.0" stroke="rgb(0,0,0)" stroke-width="0.0" fill="rgb(0,0,0)" stroke-linecap="butt" stroke-miterlimit="10.0"><path d="M 672.3856,112.1895 l -19.4074,9.8886 l 7.2616,2.2572 l 2.2572,7.2616 Z"/></g><g stroke-linejoin="miter" stroke-opacity="1.0" fill-opacity="1.0" stroke="rgb(0,0,0)" stroke-width="0.0" fill="rgb(0,0,0)" stroke-linecap="butt" stroke-miterlimit="10.0"><path d="M 660.2398,124.3353 l -0.3762,0.3762 l -0.7155,-0.7155 l 1.0917,0.3394 l -0.3762,0.3762 l 0.7155,0.7155 Z"/></g><g stroke-linejoin="miter" stroke-opacity="1.0" fill-opacity="0.0" stroke="rgb(0,0,0)" stroke-width="2.0238577025077626" fill="rgb(0,0,0)" stroke-linecap="butt" stroke-miterlimit="10.0"><path d="M 576.7646,112.1895 l 83.0990,83.0990 "/></g><g stroke-linejoin="miter" stroke-opacity="1.0" fill-opacity="1.0" stroke="rgb(0,0,0)" stroke-width="0.0" fill="rgb(0,0,0)" stroke-linecap="butt" stroke-miterlimit="10.0"></g><g stroke-linejoin="miter" stroke-opacity="1.0" fill-opacity="1.0" stroke="rgb(0,0,0)" stroke-width="0.0" fill="rgb(0,0,0)" stroke-linecap="butt" stroke-miterlimit="10.0"></g><g stroke-linejoin="miter" stroke-opacity="1.0" fill-opacity="1.0" stroke="rgb(0,0,0)" stroke-width="0.0" fill="rgb(0,0,0)" stroke-linecap="butt" stroke-miterlimit="10.0"><path d="M 672.3856,207.8105 l -9.8886,-19.4074 l -2.2572,7.2616 l -7.2616,2.2572 Z"/></g><g stroke-linejoin="miter" stroke-opacity="1.0" fill-opacity="1.0" stroke="rgb(0,0,0)" stroke-width="0.0" fill="rgb(0,0,0)" stroke-linecap="butt" stroke-miterlimit="10.0"><path d="M 660.2398,195.6647 l -0.3762,-0.3762 l 0.7155,-0.7155 l -0.3394,1.0917 l -0.3762,-0.3762 l -0.7155,0.7155 Z"/></g><g stroke-linejoin="miter" stroke-opacity="1.0" fill-opacity="0.0" stroke="rgb(0,0,0)" stroke-width="2.0238577025077626" fill="rgb(0,0,0)" stroke-linecap="butt" stroke-miterlimit="10.0"><path d="M 584.5751,93.3333 l 62.2912,0.0000 "/></g><g stroke-linejoin="miter" stroke-opacity="1.0" fill-opacity="1.0" stroke="rgb(0,0,0)" stroke-width="0.0" fill="rgb(0,0,0)" stroke-linecap="butt" stroke-miterlimit="10.0"></g><g stroke-linejoin="miter" stroke-opacity="1.0" fill-opacity="1.0" stroke="rgb(0,0,0)" stroke-width="0.0" fill="rgb(0,0,0)" stroke-linecap="butt" stroke-miterlimit="10.0"></g><g stroke-linejoin="miter" stroke-opacity="1.0" fill-opacity="1.0" stroke="rgb(0,0,0)" stroke-width="0.0" fill="rgb(0,0,0)" stroke-linecap="butt" stroke-miterlimit="10.0"><path d="M 664.5751,93.3333 l -20.7154,-6.7308 l 3.5386,6.7308 l -3.5386,6.7308 Z"/></g><g stroke-linejoin="miter" stroke-opacity="1.0" fill-opacity="1.0" stroke="rgb(0,0,0)" stroke-width="0.0" fill="rgb(0,0,0)" stroke-linecap="butt" stroke-miterlimit="10.0"><path d="M 647.3984,93.3333 l -0.5320,-0.0000 l 0.0000,-1.0119 l 0.5320,1.0119 l -0.5320,-0.0000 l -0.0000,1.0119 Z"/></g><g stroke-linejoin="miter" stroke-opacity="1.0" fill-opacity="1.0" stroke="rgb(0,0,0)" stroke-width="0.0" fill="rgb(255,255,255)" stroke-linecap="butt" stroke-miterlimit="10.0"><path d="M 491.2418,160.0000 c 0.0000,-14.7276 -11.9391,-26.6667 -26.6667 -26.6667c -14.7276,-0.0000 -26.6667,11.9391 -26.6667 26.6667c -0.0000,14.7276 11.9391,26.6667 26.6667 26.6667c 14.7276,0.0000 26.6667,-11.9391 26.6667 -26.6667Z"/></g><g stroke-linejoin="miter" stroke-opacity="1.0" fill-opacity="1.0" font-size="53.333333333333314px" stroke="rgb(0,0,0)" stroke-width="2.0238577025077626" fill="rgb(0,0,0)" stroke-linecap="butt" stroke-miterlimit="10.0"><text dominant-baseline="middle" transform="matrix(1.0000,0.0000,0.0000,1.0000,464.5751,160.0000)" stroke="none" text-anchor="middle">=</text></g><g stroke-linejoin="miter" stroke-opacity="1.0" fill-opacity="1.0" stroke="rgb(0,0,0)" stroke-width="0.0" fill="rgb(163,187,226)" stroke-linecap="butt" stroke-miterlimit="10.0"><path d="M 437.9085,160.0000 c 0.0000,-73.6380 -39.4848,-133.3333 -88.1917 -133.3333c -48.7069,-0.0000 -88.1917,59.6954 -88.1917 133.3333c -0.0000,73.6380 39.4848,133.3333 88.1917 133.3333c 48.7069,0.0000 88.1917,-59.6954 88.1917 -133.3333Z"/></g><g stroke-linejoin="miter" stroke-opacity="1.0" fill-opacity="1.0" stroke="rgb(0,0,0)" stroke-width="2.0238577025077626" fill="rgb(0,0,0)" stroke-linecap="butt" stroke-miterlimit="10.0"><path d="M 376.3834,93.3333 c 0.0000,-14.7276 -11.9391,-26.6667 -26.6667 -26.6667c -14.7276,-0.0000 -26.6667,11.9391 -26.6667 26.6667c -0.0000,14.7276 11.9391,26.6667 26.6667 26.6667c 14.7276,0.0000 26.6667,-11.9391 26.6667 -26.6667Z"/></g><g stroke-linejoin="miter" stroke-opacity="1.0" fill-opacity="1.0" font-size="26.666666666666657px" stroke="rgb(0,0,0)" stroke-width="2.0238577025077626" fill="rgb(255,255,255)" stroke-linecap="butt" stroke-miterlimit="10.0"><text dominant-baseline="middle" transform="matrix(1.0000,0.0000,0.0000,1.0000,349.7168,93.3333)" stroke="none" text-anchor="middle">3</text></g><g stroke-linejoin="miter" stroke-opacity="1.0" fill-opacity="1.0" stroke="rgb(0,0,0)" stroke-width="2.0238577025077626" fill="rgb(0,0,0)" stroke-linecap="butt" stroke-miterlimit="10.0"><path d="M 376.3834,226.6667 c 0.0000,-14.7276 -11.9391,-26.6667 -26.6667 -26.6667c -14.7276,-0.0000 -26.6667,11.9391 -26.6667 26.6667c -0.0000,14.7276 11.9391,26.6667 26.6667 26.6667c 14.7276,0.0000 26.6667,-11.9391 26.6667 -26.6667Z"/></g><g stroke-linejoin="miter" stroke-opacity="1.0" fill-opacity="1.0" font-size="26.666666666666657px" stroke="rgb(0,0,0)" stroke-width="2.0238577025077626" fill="rgb(255,255,255)" stroke-linecap="butt" stroke-miterlimit="10.0"><text dominant-baseline="middle" transform="matrix(1.0000,0.0000,0.0000,1.0000,349.7168,226.6667)" stroke="none" text-anchor="middle">4</text></g><g stroke-linejoin="miter" stroke-opacity="1.0" fill-opacity="1.0" stroke="rgb(0,0,0)" stroke-width="0.0" fill="rgb(255,255,255)" stroke-linecap="butt" stroke-miterlimit="10.0"><path d="M 261.5250,160.0000 c 0.0000,-14.7276 -11.9391,-26.6667 -26.6667 -26.6667c -14.7276,-0.0000 -26.6667,11.9391 -26.6667 26.6667c -0.0000,14.7276 11.9391,26.6667 26.6667 26.6667c 14.7276,0.0000 26.6667,-11.9391 26.6667 -26.6667Z"/></g><g stroke-linejoin="miter" stroke-opacity="1.0" fill-opacity="1.0" font-size="53.333333333333314px" stroke="rgb(0,0,0)" stroke-width="2.0238577025077626" fill="rgb(0,0,0)" stroke-linecap="butt" stroke-miterlimit="10.0"><text dominant-baseline="middle" transform="matrix(1.0000,0.0000,0.0000,1.0000,234.8584,160.0000)" stroke="none" text-anchor="middle">*</text></g><g stroke-linejoin="miter" stroke-opacity="1.0" fill-opacity="1.0" stroke="rgb(0,0,0)" stroke-width="0.0" fill="rgb(163,187,226)" stroke-linecap="butt" stroke-miterlimit="10.0"><path d="M 208.1917,160.0000 c 0.0000,-73.6380 -39.4848,-133.3333 -88.1917 -133.3333c -48.7069,-0.0000 -88.1917,59.6954 -88.1917 133.3333c -0.0000,73.6380 39.4848,133.3333 88.1917 133.3333c 48.7069,0.0000 88.1917,-59.6954 88.1917 -133.3333Z"/></g><g stroke-linejoin="miter" stroke-opacity="1.0" fill-opacity="1.0" stroke="rgb(0,0,0)" stroke-width="2.0238577025077626" fill="rgb(0,0,0)" stroke-linecap="butt" stroke-miterlimit="10.0"><path d="M 146.6667,93.3333 c 0.0000,-14.7276 -11.9391,-26.6667 -26.6667 -26.6667c -14.7276,-0.0000 -26.6667,11.9391 -26.6667 26.6667c -0.0000,14.7276 11.9391,26.6667 26.6667 26.6667c 14.7276,0.0000 26.6667,-11.9391 26.6667 -26.6667Z"/></g><g stroke-linejoin="miter" stroke-opacity="1.0" fill-opacity="1.0" font-size="26.666666666666657px" stroke="rgb(0,0,0)" stroke-width="2.0238577025077626" fill="rgb(255,255,255)" stroke-linecap="butt" stroke-miterlimit="10.0"><text dominant-baseline="middle" transform="matrix(1.0000,0.0000,0.0000,1.0000,120.0000,93.3333)" stroke="none" text-anchor="middle">1</text></g><g stroke-linejoin="miter" stroke-opacity="1.0" fill-opacity="1.0" stroke="rgb(0,0,0)" stroke-width="2.0238577025077626" fill="rgb(0,0,0)" stroke-linecap="butt" stroke-miterlimit="10.0"><path d="M 146.6667,226.6667 c 0.0000,-14.7276 -11.9391,-26.6667 -26.6667 -26.6667c -14.7276,-0.0000 -26.6667,11.9391 -26.6667 26.6667c -0.0000,14.7276 11.9391,26.6667 26.6667 26.6667c 14.7276,0.0000 26.6667,-11.9391 26.6667 -26.6667Z"/></g><g stroke-linejoin="miter" stroke-opacity="1.0" fill-opacity="1.0" font-size="26.666666666666657px" stroke="rgb(0,0,0)" stroke-width="2.0238577025077626" fill="rgb(255,255,255)" stroke-linecap="butt" stroke-miterlimit="10.0"><text dominant-baseline="middle" transform="matrix(1.0000,0.0000,0.0000,1.0000,120.0000,226.6667)" stroke="none" text-anchor="middle">2</text></g></svg>