<?xml version="1.0" encoding="UTF-8"?>
<!DOCTYPE svg PUBLIC "-//W3C//DTD SVG 1.1//EN"
    "http://www.w3.org/Graphics/SVG/1.1/DTD/svg11.dtd"><svg xmlns="http://www.w3.org/2000/svg" height="300.0000" stroke-opacity="1" viewBox="0 0 300 300" font-size="1" width="300.0000" xmlns:xlink="http://www.w3.org/1999/xlink" stroke="rgb(0,0,0)" version="1.1"><defs></defs><g stroke-linejoin="miter" stroke-opacity="1.0" fill-opacity="1.0" stroke="rgb(0,0,0)" stroke-width="0.0" fill="rgb(255,255,255)" stroke-linecap="butt" stroke-miterlimit="10.0"><path d="M 300.0000,300.0000 l -0.0000,-300.0000 h -300.0000 l -0.0000,300.0000 Z"/></g><g stroke-linejoin="miter" stroke-opacity="1.0" fill-opacity="1.0" stroke="rgb(0,0,0)" stroke-width="0.0" fill="rgb(163,187,226)" stroke-linecap="butt" stroke-miterlimit="10.0"><path d="M 275.0000,150.0000 c 0.0000,-69.0356 -55.9644,-125.0000 -125.0000 -125.0000c -69.0356,-0.0000 -125.0000,55.9644 -125.0000 125.0000c -0.0000,69.0356 55.9644,125.0000 125.0000 125.0000c 69.0356,0.0000 125.0000,-55.9644 125.0000 -125.0000Z"/></g><g stroke-linejoin="miter" stroke-opacity="1.0" fill-opacity="1.0" stroke="rgb(0,0,0)" stroke-width="1.1999999999999997" fill="rgb(0,0,0)" stroke-linecap="butt" stroke-miterlimit="10.0"><path d="M 200.0000,150.0000 c 0.0000,-27.6142 -22.3858,-50.0000 -50.0000 -50.0000c -27.6142,-0.0000 -50.0000,22.3858 -50.0000 50.0000c -0.0000,27.6142 22.3858,50.0000 50.0000 50.0000c 27.6142,0.0000 50.0000,-22.3858 50.0000 -50.0000Z"/></g><g stroke-linejoin="miter" stroke-opacity="1.0" fill-opacity="1.0" font-size="49.999999999999986px" stroke="rgb(0,0,0)" stroke-width="1.1999999999999997" fill="rgb(255,255,255)" stroke-linecap="butt" stroke-miterlimit="10.0"><text dominant-baseline="middle" transform="matrix(1.0000,0.0000,0.0000,1.0000,150.0000,150.0000)" stroke="none" text-anchor="middle">1</text></g></svg>